<?xml version="1.0" encoding="UTF-8"?>
<svg width="250px" height="157px" viewBox="0 0 250 157" version="1.1" xmlns="http://www.w3.org/2000/svg" xmlns:xlink="http://www.w3.org/1999/xlink">
    <title>Illustration/网络信号丢失</title>
    <defs>
        <linearGradient x1="50%" y1="100%" x2="50%" y2="0%" id="linearGradient-1">
            <stop stop-color="#F5F7FA" stop-opacity="0" offset="0%"></stop>
            <stop stop-color="#D9DEE4" offset="100%"></stop>
        </linearGradient>
        <linearGradient x1="50%" y1="50%" x2="50%" y2="0%" id="linearGradient-2">
            <stop stop-color="#F5F7FA" stop-opacity="0" offset="0%"></stop>
            <stop stop-color="#D9DEE4" offset="100%"></stop>
        </linearGradient>
        <linearGradient x1="50%" y1="50%" x2="50%" y2="0%" id="linearGradient-3">
            <stop stop-color="#F5F7FA" stop-opacity="0" offset="0%"></stop>
            <stop stop-color="#D9DEE4" offset="100%"></stop>
        </linearGradient>
        <linearGradient x1="70.998387%" y1="56.749425%" x2="0%" y2="56.749425%" id="linearGradient-4">
            <stop stop-color="#D9DEE4" offset="0%"></stop>
            <stop stop-color="#F5F7FA" offset="100%"></stop>
        </linearGradient>
        <filter x="-13.8%" y="-41.6%" width="127.5%" height="183.1%" filterUnits="objectBoundingBox" id="filter-5">
            <feGaussianBlur stdDeviation="0.654999971" in="SourceGraphic"></feGaussianBlur>
        </filter>
        <linearGradient x1="70.998387%" y1="56.749425%" x2="0%" y2="56.749425%" id="linearGradient-6">
            <stop stop-color="#D9DEE4" offset="0%"></stop>
            <stop stop-color="#F5F7FA" offset="100%"></stop>
        </linearGradient>
        <filter x="-13.8%" y="-41.6%" width="127.5%" height="183.1%" filterUnits="objectBoundingBox" id="filter-7">
            <feGaussianBlur stdDeviation="0.445399985" in="SourceGraphic"></feGaussianBlur>
        </filter>
        <filter x="-13.8%" y="-41.6%" width="127.5%" height="183.1%" filterUnits="objectBoundingBox" id="filter-8">
            <feGaussianBlur stdDeviation="0.445399985" in="SourceGraphic"></feGaussianBlur>
        </filter>
        <filter x="-15.0%" y="-112.5%" width="130.0%" height="325.0%" filterUnits="objectBoundingBox" id="filter-9">
            <feGaussianBlur stdDeviation="1.5" in="SourceGraphic"></feGaussianBlur>
        </filter>
        <linearGradient x1="65.1004058%" y1="86.2401015%" x2="37.3065427%" y2="31.6951581%" id="linearGradient-10">
            <stop stop-color="#D9DEE4" offset="0%"></stop>
            <stop stop-color="#F5F7FA" offset="100%"></stop>
        </linearGradient>
        <linearGradient x1="50%" y1="100%" x2="50%" y2="0%" id="linearGradient-11">
            <stop stop-color="#D9DEE4" offset="0%"></stop>
            <stop stop-color="#F5F7FA" offset="100%"></stop>
        </linearGradient>
        <linearGradient x1="32.448772%" y1="34.4219487%" x2="88.6483952%" y2="85.4206839%" id="linearGradient-12">
            <stop stop-color="#D9DEE4" offset="0%"></stop>
            <stop stop-color="#F5F7FA" offset="100%"></stop>
        </linearGradient>
        <linearGradient x1="87.80021%" y1="0%" x2="-5.01532896%" y2="141.983998%" id="linearGradient-13">
            <stop stop-color="#BEBEBE" offset="0%"></stop>
            <stop stop-color="#E3E3E3" offset="100%"></stop>
        </linearGradient>
        <path d="M50.924485,1.0577835 C47.819796,-1.75767024 33.4607528,1.82606037 7.84735539,11.8089753 C0.446890912,38.2315337 -1.70106914,52.8504675 1.40347524,55.6657767 C6.06050862,59.8889573 20.9212129,51.0880986 34.5961397,36.0084082 C48.2708497,20.9287177 55.5813015,5.28074729 50.924485,1.0577835 Z" id="path-14"></path>
        <linearGradient x1="0%" y1="50%" x2="100%" y2="50%" id="linearGradient-16">
            <stop stop-color="#D9DEE4" offset="0%"></stop>
            <stop stop-color="#F5F7FA" offset="100%"></stop>
        </linearGradient>
        <linearGradient x1="50%" y1="100%" x2="50%" y2="0%" id="linearGradient-17">
            <stop stop-color="#D9DEE4" offset="0%"></stop>
            <stop stop-color="#F5F7FA" offset="100%"></stop>
        </linearGradient>
        <linearGradient x1="1.04867999%" y1="102.155867%" x2="117.76408%" y2="21.1187425%" id="linearGradient-18">
            <stop stop-color="#D9DEE4" offset="0%"></stop>
            <stop stop-color="#F5F7FA" offset="100%"></stop>
        </linearGradient>
        <linearGradient x1="37.0984939%" y1="164.199896%" x2="104.827478%" y2="17.6930105%" id="linearGradient-19">
            <stop stop-color="#D9DEE4" offset="0%"></stop>
            <stop stop-color="#F5F7FA" offset="100%"></stop>
        </linearGradient>
        <linearGradient x1="27.613528%" y1="164.199896%" x2="145.135699%" y2="17.6930105%" id="linearGradient-20">
            <stop stop-color="#D9DEE4" offset="0%"></stop>
            <stop stop-color="#F5F7FA" offset="100%"></stop>
        </linearGradient>
        <linearGradient x1="27.0268006%" y1="164.199896%" x2="147.629112%" y2="17.6930105%" id="linearGradient-21">
            <stop stop-color="#D9DEE4" offset="0%"></stop>
            <stop stop-color="#F5F7FA" offset="100%"></stop>
        </linearGradient>
        <linearGradient x1="50%" y1="0%" x2="50%" y2="100%" id="linearGradient-22">
            <stop stop-color="#5186F0" offset="0%"></stop>
            <stop stop-color="#515FF0" offset="100%"></stop>
        </linearGradient>
    </defs>
    <g id="Illustration/网络信号丢失" stroke="none" stroke-width="1" fill="none" fill-rule="evenodd">
        <g id="编组-7">
            <path d="M249.960386,156.004844 C228.181855,108.766797 180.410001,75.9799967 124.980379,75.9799967 C69.5504419,75.9799967 21.7783595,108.76717 4.26325641e-13,156.00565" id="路径" fill="url(#linearGradient-1)"></path>
            <path d="M59.9046433,20.3049991 C63.9814796,20.3049991 67.6250742,22.1525793 70.0374893,25.0529631 C70.5667096,24.9535772 71.1134044,24.9014901 71.6723132,24.9014901 C76.5147834,24.9014901 80.440381,28.8115365 80.440381,33.6348231 C80.440381,38.4581097 76.5147834,42.368156 71.6723132,42.368156 C70.9940543,42.368156 70.3337826,42.2914483 69.6997656,42.1462675 C67.292485,44.8217829 63.7959139,46.504998 59.9046433,46.504998 C56.0521641,46.504998 52.5865544,44.855175 50.1811317,42.2261795 C49.6682825,42.3194202 49.1390806,42.368156 48.5984506,42.368156 C43.7559805,42.368156 39.8303828,38.4581097 39.8303828,33.6348231 C39.8303828,28.8115365 43.7559805,24.9014901 48.5984506,24.9014901 C49.0153109,24.9014901 49.4253768,24.9304655 49.8267288,24.9865045 C52.2402622,22.12428 55.8591498,20.3049991 59.9046433,20.3049991 Z" id="形状结合" fill="url(#linearGradient-2)"></path>
            <path d="M184.618871,0 C189.813667,0 194.456405,2.35577181 197.530287,6.05390611 C198.204705,5.92690862 198.901154,5.86052606 199.61316,5.86052606 C205.783404,5.86052606 210.785375,10.8458352 210.785375,16.9955256 C210.785375,23.145216 205.783404,28.1305251 199.61316,28.1305251 C198.749148,28.1305251 197.908043,28.0327727 197.100372,27.8477592 C194.032473,31.2588694 189.577137,33.4049985 184.618871,33.4049985 C179.710396,33.4049985 175.294801,31.3017564 172.229852,27.9501793 C171.575543,28.0684075 170.901346,28.1305251 170.212593,28.1305251 C164.042349,28.1305251 159.040378,23.145216 159.040378,16.9955256 C159.040378,10.8458352 164.042349,5.86052606 170.212593,5.86052606 C170.744171,5.86052606 171.267077,5.89752766 171.778861,5.96908766 C174.85263,2.31975205 179.463941,0 184.618871,0 Z" id="形状结合备份" fill="url(#linearGradient-3)"></path>
            <g id="编组-6" transform="translate(57.515382, 71.394997)">
                <polygon id="Fill-3" fill="#C2C6CC" points="10.4799995 34.0599985 13.0999994 34.0599985 13.0999994 13.0999994 10.4799995 13.0999994"></polygon>
                <path d="M19.6499991,18.363055 C19.6499991,24.5917615 16.1308991,26.1999989 11.789898,26.1999989 C7.44889695,26.1999989 3.92999983,24.5917615 3.92999983,18.363055 C3.92999983,12.1343485 7.44889695,0 11.789898,0 C16.1308991,0 19.6499991,12.1343485 19.6499991,18.363055" id="Fill-1" fill="url(#linearGradient-4)"></path>
                <polygon id="路径-20" fill="#C2C6CC" filter="url(#filter-5)" points="14.2791425 33.4049985 1.48325796e-13 38.1336143 11.6591426 33.4049985"></polygon>
            </g>
            <g id="编组-5" transform="translate(39.175383, 96.939996)">
                <polygon id="Fill-3" fill="#C2C6CB" points="7.12639976 23.1607992 8.9079997 23.1607992 8.9079997 8.9079997 7.12639976 8.9079997"></polygon>
                <path d="M13.3619996,12.4868775 C13.3619996,16.722398 10.9690115,17.8159994 8.01713075,17.8159994 C5.06524998,17.8159994 2.67239991,16.722398 2.67239991,12.4868775 C2.67239991,8.25135708 5.06524998,5.5067062e-14 8.01713075,5.5067062e-14 C10.9690115,5.5067062e-14 13.3619996,8.25135708 13.3619996,12.4868775" id="Fill-1" fill="url(#linearGradient-6)"></path>
                <polygon id="路径-20" fill="#C2C6CB" filter="url(#filter-7)" points="9.70981702 22.7153992 -3.66817687e-13 25.930858 7.92821708 22.7153992"></polygon>
            </g>
            <g id="编组-3" transform="translate(186.930385, 97.500000) scale(-1, 1) translate(-186.930385, -97.500000) translate(179.930385, 82.500000)">
                <polygon id="Fill-3" fill="#C2C6CB" points="7.55859088 26.4657955 9.34019082 26.4657955 9.34019082 12.212996 7.55859088 12.212996"></polygon>
                <path d="M13.6895996,12.4868775 C13.6895996,16.722398 11.2966116,17.8159994 8.34473084,17.8159994 C5.39285007,17.8159994 3,16.722398 3,12.4868775 C3,8.25135708 5.39285007,5.86197757e-14 8.34473084,5.86197757e-14 C11.2966116,5.86197757e-14 13.6895996,8.25135708 13.6895996,12.4868775" id="Fill-1" fill="url(#linearGradient-6)"></path>
                <polygon id="路径-20" fill="#C2C6CB" filter="url(#filter-8)" points="9.70981702 26.5 9.05941988e-14 29.7154587 7.92821708 26.5"></polygon>
            </g>
        </g>
        <ellipse id="椭圆形" fill="#B5BDC7" opacity="0.300000012" filter="url(#filter-9)" cx="115.430385" cy="98.5" rx="15" ry="2"></ellipse>
        <g id="编组-5" transform="translate(69.930385, 7.000000)">
            <g id="编组-4">
                <path d="M64.463557,76.4380959 L69.8154058,77.5588695 L69.7126189,94.470672 L68.4365922,94.1124978 L61.8360457,89.9538422 C61.1810706,89.541177 60.8788421,88.7444413 61.0953418,88.0011965 L64.463557,76.4380959 L64.463557,76.4380959 Z" id="矩形" fill="url(#linearGradient-10)"></path>
                <path d="M77.2919767,20.1108457 C92.3610404,33.7855557 93.4989659,57.0956566 79.8338927,72.1753471 L79.833676,72.1753471 C66.1686028,87.2550376 42.8749288,88.3937656 27.8060818,74.7188388 L77.2919767,20.1108457 Z" id="Fill-3" fill="url(#linearGradient-11)"></path>
                <path d="M60.9986162,55.0615354 C74.6733262,39.9818449 81.983778,24.3338745 77.3269615,20.1109107 C72.6699281,15.8877301 57.8092238,24.6885887 44.134297,39.7682792 C30.4593702,54.8479697 23.1491352,70.4959401 27.8059517,74.7189039 C32.4629851,78.9420845 47.3236894,70.1412259 60.9986162,55.0615354" id="Fill-5" fill="url(#linearGradient-12)"></path>
                <g id="Fill-1" transform="translate(26.402477, 19.053127)">
                    <mask id="mask-15" fill="white">
                        <use xlink:href="#path-14"></use>
                    </mask>
                    <use id="蒙版" fill-opacity="0" fill="url(#linearGradient-13)" xlink:href="#path-14"></use>
                    <path d="M24.7665831,11.2394228 L24.7665831,11.2394228 C23.8947332,11.2394228 23.1634302,12.0674298 23.0718579,13.1590249 L20.8858563,39.2015953 C20.6425137,42.1023489 22.4492173,44.6293916 24.7665831,44.6293916 C27.0839488,44.6293916 28.8906524,42.1023489 28.6473099,39.2015953 L26.4613082,13.1590249 C26.3697359,12.0674298 25.6384329,11.2394228 24.7665831,11.2394228" fill="url(#linearGradient-16)" mask="url(#mask-15)" transform="translate(24.766583, 27.934407) scale(-1, 1) rotate(47.000000) translate(-24.766583, -27.934407) "></path>
                </g>
                <path d="M40.4983028,36.4710848 L40.4983028,36.4710848 C38.8895134,38.2450895 36.1471996,38.379083 34.3731949,36.7702936 L34.3729781,36.7702936 C32.5989734,35.1615042 32.4649799,32.4191904 34.0737693,30.6449689 C35.6825587,28.8709642 38.4248725,28.7369707 40.199094,30.3457601 C41.9730987,31.9545495 42.1070922,34.6968633 40.4983028,36.4710848" id="Fill-9" fill="url(#linearGradient-17)"></path>
                <path d="M88.4688688,94.470672 L69.8068589,94.470672 C68.2062827,94.470672 66.9879175,93.0306009 67.2489186,91.446891 L70.3437693,72.6724546 C70.4919868,71.7735747 71.0984686,71.0181169 71.942617,70.6810099 L80.3171221,67.3370206 C81.7079036,66.7815305 83.2773671,67.5194397 83.741465,68.9465118 L90.9339031,91.0649375 C91.4803201,92.7452731 90.2314904,94.470672 88.4688688,94.470672" id="Fill-1" fill="url(#linearGradient-18)"></path>
                <path d="M20.4006183,4.50310872 C20.9410154,4.1872483 21.325824,3.68015444 21.4842745,3.07471195 C21.6427251,2.46952965 21.5558245,1.83884954 21.2399641,1.29923299 C20.8215921,0.58399388 20.0467714,0.139603776 19.2175728,0.139603776 C18.8033637,0.139603776 18.3951389,0.25044112 18.0363485,0.460407639 C14.8056741,2.35036649 11.8820139,4.7263445 9.34680476,7.52225554 C4.08333181,13.3261256 0.856039736,20.4998516 0.0138320268,28.267572 C-0.125625289,29.5510477 0.805304332,30.7085954 2.08982069,30.8483129 C2.17463988,30.8574193 2.25919889,30.8621026 2.34271717,30.8621026 L2.34297735,30.8621026 C3.0012367,30.8621026 3.63347789,30.5813667 4.07708745,30.0924855 C4.41116057,29.7238082 4.61592346,29.2674498 4.66952086,28.7725845 C5.40479395,21.9948548 8.22151952,15.7343661 12.8158055,10.6681108 C15.0304709,8.22604666 17.5825919,6.15161908 20.4006183,4.50310872" id="Fill-1" fill="url(#linearGradient-19)"></path>
                <path d="M33.6427149,11.3249912 C34.1440848,10.7718452 34.3530106,10.0058707 34.2013248,9.27606138 C33.9773084,8.19448664 33.0135959,7.40925869 31.9099058,7.40925869 C31.7504145,7.40925869 31.5901426,7.42591031 31.432993,7.458433 C26.1742033,8.54963447 21.4784465,11.2391313 17.853597,15.2363006 C14.2284873,19.23373 12.009659,24.1693742 11.4362188,29.5096008 C11.3696123,30.1314347 11.5488774,30.7420808 11.9414914,31.2291407 C12.3343655,31.7162006 12.8929754,32.0211334 13.5142889,32.0874797 C13.5988479,32.096586 13.6834069,32.1012693 13.766665,32.1012693 L13.766665,32.1012693 C14.9645409,32.1012693 15.9644187,31.2018216 16.0926882,30.0094095 C16.5594539,25.6612553 18.3679759,21.6406697 21.3225977,18.3826762 C24.2777399,15.1244225 28.102669,12.9323928 32.3844769,12.044133 C32.8730979,11.9426622 33.3078613,11.6941888 33.6427149,11.3249912" id="Fill-3" fill="url(#linearGradient-20)"></path>
                <path d="M36.5529758,20.5294342 C36.3294798,19.4468187 35.3657673,18.6608102 34.2610364,18.6608102 C34.1023257,18.6608102 33.9425742,18.6774619 33.7862051,18.7097244 C30.9109387,19.3034587 28.3447679,20.7714031 26.3647863,22.9548467 C24.3842842,25.1385505 23.1736594,27.8358528 22.8632628,30.7548297 C22.7969165,31.3766636 22.9769622,31.9873098 23.3700965,32.4738493 C23.7632308,32.9603888 24.3221008,33.2648012 24.9441949,33.3308873 C25.0279734,33.3397335 25.1109713,33.3441566 25.1934489,33.3441566 C26.3936664,33.3441566 27.3938043,32.4436682 27.5202526,31.2499552 C27.7247553,29.3248718 28.5250738,27.5441893 29.833787,26.1009621 C31.1430206,24.6574748 32.8370627,23.6877782 34.733266,23.2962049 C35.2226675,23.1949943 35.6584716,22.9462607 35.9938456,22.5765427 C36.4946951,22.0239171 36.7036209,21.2587231 36.5529758,20.5294342" id="Fill-5" fill="url(#linearGradient-21)"></path>
            </g>
            <circle id="椭圆形" fill="#FFFFFF" opacity="0.5" cx="78.2712906" cy="73.4394704" r="1.95136182"></circle>
        </g>
        <path d="M102.319181,0.388464694 C101.349484,-0.291910085 100.011631,-0.0546245028 99.331256,0.912990719 L98.0992963,2.66947643 L96.3430708,1.43725656 C95.3731139,0.757402146 94.037602,0.992085913 93.3548856,1.96204277 C92.6745108,2.93173944 92.9091945,4.26959302 93.8794116,4.9499678 L95.6358973,6.18192749 L94.4041978,7.9384132 C93.7235628,8.90810988 93.9590271,10.2462236 94.9287238,10.9263382 C95.8237484,11.5541563 97.0322917,11.4027307 97.7480512,10.6133398 C97.807893,10.5472537 97.8640922,10.4764843 97.9166489,10.4018122 L99.1483484,8.6453265 L100.904574,9.87728619 C101.799598,10.5051043 103.008142,10.3539388 103.724161,9.56454795 C103.783743,9.49846183 103.840202,9.42769245 103.892759,9.35276016 C104.573134,8.38306349 104.33845,7.04520991 103.368233,6.36483513 L101.611747,5.13287544 L102.843707,3.37638973 C103.524082,2.40643287 103.289138,1.06831911 102.319181,0.388464694" id="Fill-7" fill="url(#linearGradient-22)"></path>
    </g>
</svg>